<?xml version="1.0" encoding="UTF-8" standalone="no"?>
<!-- Created with Inkscape (http://www.inkscape.org/) -->

<svg
   xmlns:dc="http://purl.org/dc/elements/1.1/"
   xmlns:cc="http://creativecommons.org/ns#"
   xmlns:rdf="http://www.w3.org/1999/02/22-rdf-syntax-ns#"
   xmlns:svg="http://www.w3.org/2000/svg"
   xmlns="http://www.w3.org/2000/svg"
   xmlns:xlink="http://www.w3.org/1999/xlink"
   version="1.1"
   width="640"
   height="640"
   viewBox="0 0 640 640.00001"
   id="svg2">
  <defs
     id="defs4">
    <pattern
       patternTransform="translate(105.25,484.94697)"
       id="pattern5401"
       xlink:href="#pattern5398" />
    <pattern
       patternTransform="translate(105.25,484.94698)"
       id="pattern5398"
       xlink:href="#pattern5345" />
    <pattern
       id="pattern5345"
       patternTransform="translate(105.25,484.94699)"
       height="467.20925"
       width="433.96874"
       patternUnits="userSpaceOnUse">
      <g
         transform="translate(-105.24999,-484.94698)"
         id="g4111">
        <g
           id="g3996">
          <path
             id="rect3998"
             d="m 125.25892,524.05243 393.9595,0 0,408.10162 -393.9595,0 z"
             style="fill:none;stroke:#f0f1eb;stroke-width:40;stroke-linecap:butt;stroke-linejoin:miter;stroke-miterlimit:4;stroke-opacity:1;stroke-dashoffset:0"
             transform="translate(-4.9229925e-6,0)" />
          <path
             id="rect4000"
             d="m 299.09137,608.72766 50,0 0,50 -50,0 z"
             style="fill:#f0f1eb;fill-opacity:1;stroke:none" />
          <path
             id="rect4002"
             d="m 359.09137,608.72766 50,0 0,50 -50,0 z"
             style="fill:#f0f1eb;fill-opacity:1;stroke:none" />
          <path
             id="rect4004"
             d="m 419.09137,608.72766 50,0 0,50 -50,0 z"
             style="fill:#f0f1eb;fill-opacity:1;stroke:none" />
          <path
             id="rect4006"
             d="m 179.09137,668.72766 50,0 0,50 -50,0 z"
             style="fill:#f0f1eb;fill-opacity:1;stroke:none" />
          <path
             id="rect4008"
             d="m 239.09137,668.72766 50,0 0,50 -50,0 z"
             style="fill:#f0f1eb;fill-opacity:1;stroke:none" />
          <path
             id="rect4010"
             d="m 299.09137,668.72766 50,0 0,50 -50,0 z"
             style="fill:#f0f1eb;fill-opacity:1;stroke:none" />
          <path
             id="rect4012"
             d="m 359.09137,668.72766 50,0 0,50 -50,0 z"
             style="fill:#f0f1eb;fill-opacity:1;stroke:none" />
          <path
             id="rect4014"
             d="m 419.09137,668.72766 50,0 0,50 -50,0 z"
             style="fill:#f0f1eb;fill-opacity:1;stroke:none" />
          <path
             id="rect4016"
             d="m 179.09137,728.72766 50,0 0,50 -50,0 z"
             style="fill:#f0f1eb;fill-opacity:1;stroke:none" />
          <path
             id="rect4018"
             d="m 239.09137,728.72766 50,0 0,50 -50,0 z"
             style="fill:#f0f1eb;fill-opacity:1;stroke:none" />
          <path
             id="rect4020"
             d="m 299.09137,728.72766 50,0 0,50 -50,0 z"
             style="fill:#f0f1eb;fill-opacity:1;stroke:none" />
          <path
             id="rect4022"
             d="m 359.09137,728.72766 50,0 0,50 -50,0 z"
             style="fill:#f0f1eb;fill-opacity:1;stroke:none" />
          <path
             id="rect4024"
             d="m 419.09137,728.72766 50,0 0,50 -50,0 z"
             style="fill:#f0f1eb;fill-opacity:1;stroke:none" />
          <path
             id="rect4026"
             d="m 179.09137,788.72766 50,0 0,50 -50,0 z"
             style="fill:#f0f1eb;fill-opacity:1;stroke:none" />
          <path
             id="rect4028"
             d="m 239.09137,788.72766 50,0 0,50 -50,0 z"
             style="fill:#f0f1eb;fill-opacity:1;stroke:none" />
          <path
             id="rect4030"
             d="m 299.09137,788.72766 50,0 0,50 -50,0 z"
             style="fill:#f0f1eb;fill-opacity:1;stroke:none" />
          <path
             id="rect4032"
             d="m 359.09137,788.72766 50,0 0,50 -50,0 z"
             style="fill:#f0f1eb;fill-opacity:1;stroke:none" />
          <path
             id="rect4034"
             d="m 419.09137,788.72766 50,0 0,50 -50,0 z"
             style="fill:#f0f1eb;fill-opacity:1;stroke:none" />
          <path
             id="rect4036"
             d="m 179.09137,848.72766 50,0 0,50 -50,0 z"
             style="fill:#f0f1eb;fill-opacity:1;stroke:none" />
          <path
             id="rect4038"
             d="m 239.09137,848.72766 50,0 0,50 -50,0 z"
             style="fill:#f0f1eb;fill-opacity:1;stroke:none" />
          <path
             id="rect4040"
             d="m 299.09137,848.72766 50,0 0,50 -50,0 z"
             style="fill:#f0f1eb;fill-opacity:1;stroke:none" />
          <path
             id="rect4042"
             d="m 359.09137,848.72766 50,0 0,50 -50,0 z"
             style="fill:#f0f1eb;fill-opacity:1;stroke:none" />
          <path
             id="rect4044"
             d="m 106.06602,508.90012 424.26407,0 0,84.85286 -424.26407,0 z"
             style="fill:#f0f1eb;fill-opacity:1;stroke:none"
             transform="translate(-4.9229925e-6,0)" />
        </g>
        <path
           style="fill:#f0f1eb;fill-opacity:1;stroke:none"
           d="m 218.2295,484.94699 14.34508,0 c 2.64906,0 4.7817,1.37456 4.7817,3.08198 l 0,47.00012 c 0,1.70741 -2.13264,3.08197 -4.7817,3.08197 l -14.34508,0 c -2.64906,0 -4.7817,-1.37456 -4.7817,-3.08197 l 0,-47.00012 c 0,-1.70742 2.13264,-3.08198 4.7817,-3.08198 z"
           id="rect4070" />
        <path
           style="fill:#f0f1eb;fill-opacity:1;stroke:none"
           d="m 412.91283,485.70975 14.34509,0 c 2.64906,0 4.7817,1.37456 4.7817,3.08197 l 0,47.00013 c 0,1.70741 -2.13264,3.08197 -4.7817,3.08197 l -14.34509,0 c -2.64906,0 -4.7817,-1.37456 -4.7817,-3.08197 l 0,-47.00013 c 0,-1.70741 2.13264,-3.08197 4.7817,-3.08197 z"
           id="rect4074" />
      </g>
    </pattern>
    <mask
       id="mask5544">
      <rect
         width="488.91382"
         height="447.49756"
         x="77.781738"
         y="492.73767"
         id="rect5546"
         style="fill:#f0f1eb;fill-opacity:1;stroke:none" />
    </mask>
  </defs>
  <metadata
     id="metadata7">
    <rdf:RDF>
      <cc:Work
         rdf:about="">
        <dc:format>image/svg+xml</dc:format>
        <dc:type
           rdf:resource="http://purl.org/dc/dcmitype/StillImage" />
        <dc:title></dc:title>
      </cc:Work>
    </rdf:RDF>
  </metadata>
  <g
     transform="translate(2.1481913e-6,-412.375)"
     id="g3129"
     style="display:inline">
    <path
       d="m 204.55588,566.98389 a 44.951786,56.380356 0 1 1 -89.90357,0 44.951786,56.380356 0 1 1 89.90357,0 z"
       transform="translate(276.7818,278.48523)"
       id="path3133"
       style="fill:none;stroke:#f0f1eb;stroke-width:40;stroke-miterlimit:4;stroke-opacity:1;stroke-dasharray:none" />
    <path
       d="M 229.25707,906.42534 415.02871,564.01336"
       id="path3135"
       style="fill:none;stroke:#f0f1eb;stroke-width:40;stroke-linecap:round;stroke-linejoin:miter;stroke-miterlimit:4;stroke-opacity:1;stroke-dasharray:none" />
    <path
       d="m 204.55588,566.98389 a 44.951786,56.380356 0 1 1 -89.90357,0 44.951786,56.380356 0 1 1 89.90357,0 z"
       transform="translate(45.353224,54.199511)"
       id="path3149"
       style="fill:none;stroke:#f0f1eb;stroke-width:40;stroke-miterlimit:4;stroke-opacity:1;stroke-dasharray:none" />
  </g>
</svg>
