<?xml version="1.0" encoding="UTF-8" standalone="no"?>
<!-- Created with Inkscape (http://www.inkscape.org/) -->

<svg
   xmlns:dc="http://purl.org/dc/elements/1.1/"
   xmlns:cc="http://creativecommons.org/ns#"
   xmlns:rdf="http://www.w3.org/1999/02/22-rdf-syntax-ns#"
   xmlns:svg="http://www.w3.org/2000/svg"
   xmlns="http://www.w3.org/2000/svg"
   xmlns:xlink="http://www.w3.org/1999/xlink"
   version="1.1"
   width="640"
   height="640"
   viewBox="0 0 640 640.00001"
   id="svg2">
  <defs
     id="defs4">
    <pattern
       patternTransform="translate(105.25,484.94697)"
       id="pattern5401"
       xlink:href="#pattern5398" />
    <pattern
       patternTransform="translate(105.25,484.94698)"
       id="pattern5398"
       xlink:href="#pattern5345" />
    <pattern
       id="pattern5345"
       patternTransform="translate(105.25,484.94699)"
       height="467.20925"
       width="433.96874"
       patternUnits="userSpaceOnUse">
      <g
         transform="translate(-105.24999,-484.94698)"
         id="g4111">
        <g
           id="g3996">
          <path
             id="rect3998"
             d="m 125.25892,524.05243 393.9595,0 0,408.10162 -393.9595,0 z"
             style="fill:none;stroke:#f0f1eb;stroke-width:40;stroke-linecap:butt;stroke-linejoin:miter;stroke-miterlimit:4;stroke-opacity:1;stroke-dashoffset:0"
             transform="translate(-4.9229925e-6,0)" />
          <path
             id="rect4000"
             d="m 299.09137,608.72766 50,0 0,50 -50,0 z"
             style="fill:#f0f1eb;fill-opacity:1;stroke:none" />
          <path
             id="rect4002"
             d="m 359.09137,608.72766 50,0 0,50 -50,0 z"
             style="fill:#f0f1eb;fill-opacity:1;stroke:none" />
          <path
             id="rect4004"
             d="m 419.09137,608.72766 50,0 0,50 -50,0 z"
             style="fill:#f0f1eb;fill-opacity:1;stroke:none" />
          <path
             id="rect4006"
             d="m 179.09137,668.72766 50,0 0,50 -50,0 z"
             style="fill:#f0f1eb;fill-opacity:1;stroke:none" />
          <path
             id="rect4008"
             d="m 239.09137,668.72766 50,0 0,50 -50,0 z"
             style="fill:#f0f1eb;fill-opacity:1;stroke:none" />
          <path
             id="rect4010"
             d="m 299.09137,668.72766 50,0 0,50 -50,0 z"
             style="fill:#f0f1eb;fill-opacity:1;stroke:none" />
          <path
             id="rect4012"
             d="m 359.09137,668.72766 50,0 0,50 -50,0 z"
             style="fill:#f0f1eb;fill-opacity:1;stroke:none" />
          <path
             id="rect4014"
             d="m 419.09137,668.72766 50,0 0,50 -50,0 z"
             style="fill:#f0f1eb;fill-opacity:1;stroke:none" />
          <path
             id="rect4016"
             d="m 179.09137,728.72766 50,0 0,50 -50,0 z"
             style="fill:#f0f1eb;fill-opacity:1;stroke:none" />
          <path
             id="rect4018"
             d="m 239.09137,728.72766 50,0 0,50 -50,0 z"
             style="fill:#f0f1eb;fill-opacity:1;stroke:none" />
          <path
             id="rect4020"
             d="m 299.09137,728.72766 50,0 0,50 -50,0 z"
             style="fill:#f0f1eb;fill-opacity:1;stroke:none" />
          <path
             id="rect4022"
             d="m 359.09137,728.72766 50,0 0,50 -50,0 z"
             style="fill:#f0f1eb;fill-opacity:1;stroke:none" />
          <path
             id="rect4024"
             d="m 419.09137,728.72766 50,0 0,50 -50,0 z"
             style="fill:#f0f1eb;fill-opacity:1;stroke:none" />
          <path
             id="rect4026"
             d="m 179.09137,788.72766 50,0 0,50 -50,0 z"
             style="fill:#f0f1eb;fill-opacity:1;stroke:none" />
          <path
             id="rect4028"
             d="m 239.09137,788.72766 50,0 0,50 -50,0 z"
             style="fill:#f0f1eb;fill-opacity:1;stroke:none" />
          <path
             id="rect4030"
             d="m 299.09137,788.72766 50,0 0,50 -50,0 z"
             style="fill:#f0f1eb;fill-opacity:1;stroke:none" />
          <path
             id="rect4032"
             d="m 359.09137,788.72766 50,0 0,50 -50,0 z"
             style="fill:#f0f1eb;fill-opacity:1;stroke:none" />
          <path
             id="rect4034"
             d="m 419.09137,788.72766 50,0 0,50 -50,0 z"
             style="fill:#f0f1eb;fill-opacity:1;stroke:none" />
          <path
             id="rect4036"
             d="m 179.09137,848.72766 50,0 0,50 -50,0 z"
             style="fill:#f0f1eb;fill-opacity:1;stroke:none" />
          <path
             id="rect4038"
             d="m 239.09137,848.72766 50,0 0,50 -50,0 z"
             style="fill:#f0f1eb;fill-opacity:1;stroke:none" />
          <path
             id="rect4040"
             d="m 299.09137,848.72766 50,0 0,50 -50,0 z"
             style="fill:#f0f1eb;fill-opacity:1;stroke:none" />
          <path
             id="rect4042"
             d="m 359.09137,848.72766 50,0 0,50 -50,0 z"
             style="fill:#f0f1eb;fill-opacity:1;stroke:none" />
          <path
             id="rect4044"
             d="m 106.06602,508.90012 424.26407,0 0,84.85286 -424.26407,0 z"
             style="fill:#f0f1eb;fill-opacity:1;stroke:none"
             transform="translate(-4.9229925e-6,0)" />
        </g>
        <path
           style="fill:#f0f1eb;fill-opacity:1;stroke:none"
           d="m 218.2295,484.94699 14.34508,0 c 2.64906,0 4.7817,1.37456 4.7817,3.08198 l 0,47.00012 c 0,1.70741 -2.13264,3.08197 -4.7817,3.08197 l -14.34508,0 c -2.64906,0 -4.7817,-1.37456 -4.7817,-3.08197 l 0,-47.00012 c 0,-1.70742 2.13264,-3.08198 4.7817,-3.08198 z"
           id="rect4070" />
        <path
           style="fill:#f0f1eb;fill-opacity:1;stroke:none"
           d="m 412.91283,485.70975 14.34509,0 c 2.64906,0 4.7817,1.37456 4.7817,3.08197 l 0,47.00013 c 0,1.70741 -2.13264,3.08197 -4.7817,3.08197 l -14.34509,0 c -2.64906,0 -4.7817,-1.37456 -4.7817,-3.08197 l 0,-47.00013 c 0,-1.70741 2.13264,-3.08197 4.7817,-3.08197 z"
           id="rect4074" />
      </g>
    </pattern>
  </defs>
  <metadata
     id="metadata7">
    <rdf:RDF>
      <cc:Work
         rdf:about="">
        <dc:format>image/svg+xml</dc:format>
        <dc:type
           rdf:resource="http://purl.org/dc/dcmitype/StillImage" />
        <dc:title></dc:title>
      </cc:Work>
    </rdf:RDF>
  </metadata>
  <g
     transform="translate(2.1481913e-6,-412.375)"
     id="g3994"
     style="display:inline">
    <path
       d="m 105.25,484.9375 0,467.21875 433.96875,0 0,-467.21875 -106.625,0 c 1.08481,0.90007 1.9375,2.23493 1.9375,3.84375 l 0,47 c 0,1.89458 -1.17815,3.40913 -2.53125,4.28125 -1.3531,0.87212 -2.99306,1.3125 -4.75,1.3125 l -14.34375,0 c -1.75694,0 -3.36565,-0.44038 -4.71875,-1.3125 -1.3531,-0.87212 -2.5625,-2.38667 -2.5625,-4.28125 l 0,-47 c 0,-1.60882 0.87714,-2.94368 1.96875,-3.84375 l -168.9375,0 c 0.70612,0.83375 1.1875,1.87701 1.1875,3.09375 l 0,47 c 0,1.89458 -1.17815,3.40913 -2.53125,4.28125 -1.3531,0.87212 -2.99306,1.3125 -4.75,1.3125 l -14.34375,0 c -1.75694,0 -3.36565,-0.44038 -4.71875,-1.3125 -1.3531,-0.87212 -2.5625,-2.38667 -2.5625,-4.28125 l 0,-47 c 0,-1.21674 0.50341,-2.26 1.21875,-3.09375 l -106.90625,0 z m 112.96875,2.5 c -0.89212,0 -1.65576,0.25799 -2.03125,0.5 -0.16464,0.10609 -0.22518,0.16142 -0.25,0.1875 l 0,46.8125 c 0.0252,0.0197 0.0863,0.0508 0.25,0.15625 0.37549,0.24201 1.13913,0.53125 2.03125,0.53125 l 14.34375,0 c 0.89212,0 1.65576,-0.28924 2.03125,-0.53125 0.16368,-0.10549 0.22482,-0.13654 0.25,-0.15625 l 0,-46.8125 c -0.0248,-0.0261 -0.0854,-0.0814 -0.25,-0.1875 -0.37549,-0.24201 -1.13913,-0.5 -2.03125,-0.5 l -14.34375,0 z m 194.6875,0.78125 c -0.89212,0 -1.65576,0.25799 -2.03125,0.5 -0.16368,0.10549 -0.22482,0.13654 -0.25,0.15625 l 0,46.8125 c 0.0248,0.0261 0.0854,0.0814 0.25,0.1875 0.37549,0.24201 1.13913,0.5 2.03125,0.5 l 14.34375,0 c 0.89212,0 1.65576,-0.25799 2.03125,-0.5 0.16464,-0.10609 0.22518,-0.16142 0.25,-0.1875 l 0,-46.8125 c -0.0252,-0.0197 -0.0863,-0.0508 -0.25,-0.15625 -0.37549,-0.24201 -1.13913,-0.5 -2.03125,-0.5 l -14.34375,0 z"
       transform="translate(-4.9229925e-6,0)"
       id="rect5375"
       style="fill:url(#pattern5401);stroke:none" />
  </g>
</svg>
