<?xml version="1.0" encoding="UTF-8" standalone="no"?>
<!-- Created with Inkscape (http://www.inkscape.org/) -->

<svg
   xmlns:dc="http://purl.org/dc/elements/1.1/"
   xmlns:cc="http://creativecommons.org/ns#"
   xmlns:rdf="http://www.w3.org/1999/02/22-rdf-syntax-ns#"
   xmlns:svg="http://www.w3.org/2000/svg"
   xmlns="http://www.w3.org/2000/svg"
   version="1.1"
   width="640"
   height="640"
   viewBox="0 0 640 640.00001"
   id="svg2">
  <defs
     id="defs4" />
  <metadata
     id="metadata7">
    <rdf:RDF>
      <cc:Work
         rdf:about="">
        <dc:format>image/svg+xml</dc:format>
        <dc:type
           rdf:resource="http://purl.org/dc/dcmitype/StillImage" />
        <dc:title></dc:title>
      </cc:Work>
    </rdf:RDF>
  </metadata>
  <g
     transform="translate(2.1481913e-6,-412.375)"
     id="layer13"
     style="display:inline">
    <path
       d="m 153.54319,532.13362 0,307.08638 153.54318,34.34518 0,-296.98485 z"
       transform="translate(-4.9229925e-6,0)"
       id="path5707"
       style="fill:none;stroke:#297000;stroke-width:1px;stroke-linecap:butt;stroke-linejoin:miter;stroke-opacity:0" />
    <g
       transform="translate(24.025332,27.048008)"
       id="g5935">
      <g
         id="g5740">
        <g
           id="g5715">
          <path
             d="M 196.46414,524.05235 C 161.08027,533.052 100,525.0625 100,525.0625 L 99,902.875 c 0,0 70.39062,2.17508 89.89308,-4.04061 19.07507,-6.07948 69.71578,-33.69299 93.99618,4.58873 l 28.23178,0 c 24.30283,-39.31422 73.54215,-19.10297 91.92338,-2.56842 10.33323,9.29508 89.92433,2.0203 89.92433,2.0203 L 491.9375,525.0625 c 0,0 -74.00296,12.52569 -97.4743,-1.01015 -23.89814,-13.78198 -60.61373,-23.06554 -98.49445,1.01015 -41.69148,-26.39309 -67.59858,-10.59035 -99.50461,-1.01015 z"
             transform="translate(-4.9229925e-6,0)"
             id="path5711"
             style="fill:none;stroke:#f0f1eb;stroke-width:40;stroke-linecap:butt;stroke-linejoin:miter;stroke-miterlimit:4;stroke-opacity:1;stroke-dasharray:none;marker-start:none" />
        </g>
        <path
           d="m 109.09184,877.19396 c 0,0 54.54589,13.94732 89.89309,-4.04061 35.34719,-17.98792 63.93765,-32.93377 95.96399,-1.01015 28.02524,-32.09162 61.36336,-17.10137 95.964,1.01015 36.60407,19.1602 89.92432,3.03046 89.92432,3.03046"
           id="path5711-1"
           style="fill:none;stroke:#f0f1eb;stroke-width:40;stroke-linecap:square;stroke-linejoin:miter;stroke-miterlimit:4;stroke-opacity:1;stroke-dasharray:none;display:inline" />
      </g>
      <path
         d="m 295.9747,894.65723 0,-378.68605 0,0"
         transform="translate(-4.9229925e-6,0)"
         id="path5738"
         style="fill:none;stroke:#f0f1eb;stroke-width:20;stroke-linecap:butt;stroke-linejoin:miter;stroke-miterlimit:4;stroke-opacity:1;stroke-dasharray:none" />
    </g>
  </g>
</svg>
